<svg width="600" height="200" viewBox="0 0 600 200" xmlns="http://www.w3.org/2000/svg">
  <!-- Fondo amarillo -->
  <rect width="600" height="200" fill="#FFD700"/>
  
  <!-- Texto Filament -->
  <text x="150" y="60" font-family="Arial, sans-serif" font-size="32" font-weight="bold" fill="#000000">filament</text>
  
  <!-- Línea vertical -->
  <line x1="300" y1="20" x2="300" y2="80" stroke="#000000" stroke-width="3"/>
  
  <!-- Texto SAML2 -->
  <text x="350" y="60" font-family="Arial, sans-serif" font-size="32" font-weight="bold" fill="#000000">SAML2</text>
  
  <!-- Iconos de proveedores -->
  
  <!-- Okta -->
  <text x="80" y="130" font-family="Arial, sans-serif" font-size="18" font-weight="bold" fill="#007DC1">okta</text>
  
  <!-- Microsoft -->
  <g transform="translate(150, 110)">
    <rect x="0" y="0" width="20" height="20" fill="#F25022"/>
    <rect x="20" y="0" width="20" height="20" fill="#7FBA00"/>
    <rect x="0" y="20" width="20" height="20" fill="#00A4EF"/>
    <rect x="20" y="20" width="20" height="20" fill="#FFB900"/>
  </g>
  
  <!-- Google -->
  <g transform="translate(220, 110)">
    <circle cx="20" cy="20" r="20" fill="#4285F4"/>
    <path d="M20 5 L20 35 L35 20 Z" fill="#EA4335"/>
    <path d="M5 20 L35 20 L20 5 Z" fill="#FBBC05"/>
    <path d="M5 20 L35 20 L20 35 Z" fill="#34A853"/>
  </g>
  
  <!-- Auth0 -->
  <g transform="translate(290, 110)">
    <rect x="0" y="5" width="30" height="30" rx="5" fill="#EB5424"/>
    <polygon points="15,15 20,10 20,20" fill="#FFFFFF"/>
    <text x="35" y="25" font-family="Arial, sans-serif" font-size="14" font-weight="bold" fill="#000000">Auth0</text>
  </g>
</svg>
